<svg xmlns="http://www.w3.org/2000/svg" id="Calque_1" x="0" y="0" version="1.1" viewBox="0 0 260 260" xml:space="preserve" fill="#0ea5e9">
  <path fill="#060b14" d="M242.6 195V65L130 0 17.4 65v130L130 260z"/>
  <path d="M76.7 153.9l37.1 17.3v-13.5l-37.1-17.3zM113.8 133.5L93.6 124v13.5l20.2 9.4z"/>
  <path d="M130 188.9l-67.5-31.5V76.5l67.5 31.4V94.5L49.1 56.7v107.9l80.9 37.8zM147.5 194.2l20.3-9.4v-13.5l-20.3 9.4zM167.8 147.7l-20.3 9.4v13.5l20.3-9.4z"/>
  <path d="M184 116.5l-54 25.2v13.5l54-25.2z"/>
  <path d="M130 118.1L76 92.9v13.5l54 25.2 67.5-31.5v81L130 212.5V226l80.9-37.7v-108z"/>
</svg>
